<?xml version="1.0" encoding="UTF-8"?>
<svg version="1.1" xmlns="http://www.w3.org/2000/svg" width="500" height="500">
<path d="M0 0 C165 0 330 0 500 0 C500 165 500 330 500 500 C335 500 170 500 0 500 C0 335 0 170 0 0 Z " fill="#090001" transform="translate(0,0)"/>
<path d="M0 0 C-0.03330917 1.18635544 -0.06661835 2.37271088 -0.10093689 3.59501648 C-0.40605649 14.81859811 -0.63035127 26.04133065 -0.77718258 37.2681303 C-0.85521637 43.03932743 -0.9608885 48.8071572 -1.1315918 54.57641602 C-1.29554416 60.15292271 -1.38445254 65.72620918 -1.42315865 71.30494118 C-1.45070847 73.42431139 -1.50451582 75.54352046 -1.58595085 77.66150475 C-2.31485089 90.27023663 -2.31485089 90.27023663 3.20187378 101.08096313 C6.27371172 103.95070272 9.5684471 106.36753795 13.07285881 108.67968178 C16.16784014 110.80010776 18.93526623 113.27738551 21.75 115.75 C26.51219285 119.79171593 31.32140305 123.77527742 36.21875 127.65234375 C38.74258232 129.78271345 40.97093473 131.98351408 43.19726562 134.41235352 C48.02138562 138.82814808 51.60626498 141.58548063 58.33990479 141.52653503 C59.10945496 141.49199722 59.87900513 141.45745941 60.671875 141.421875 C61.49701599 141.40268509 62.32215698 141.38349518 63.17230225 141.36372375 C71.67243219 141.10642204 80.13278074 140.33231991 88.5887146 139.46130371 C93.2251635 138.98428726 97.86461895 138.53826653 102.50390625 138.08984375 C103.44885452 137.99788727 104.3938028 137.90593079 105.36738586 137.81118774 C115.63033561 136.82284592 125.90631615 136.02172658 136.1875 135.25 C137.04581421 135.18533539 137.90412842 135.12067078 138.78845215 135.05404663 C143.52528305 134.69782898 148.26244615 134.34646531 153 134 C151.51891127 137.4534417 149.57178301 139.64921326 146.89453125 142.265625 C146.07533203 143.07386719 145.25613281 143.88210937 144.41210938 144.71484375 C143.55423828 145.55144531 142.69636719 146.38804687 141.8125 147.25 C140.12904002 148.89852269 138.44801544 150.54953636 136.76953125 152.203125 C136.02292236 152.93176758 135.27631348 153.66041016 134.50708008 154.41113281 C132.47558845 156.50889669 130.56027347 158.63678957 128.65307617 160.84472656 C125.191432 164.83293454 121.53919453 168.57360347 117.78125 172.28125 C117.11967896 172.93903442 116.45810791 173.59681885 115.77648926 174.27453613 C112.98421856 177.05066558 110.18594584 179.82071537 107.38818359 182.59130859 C105.32959102 184.6316708 103.27412097 186.67514331 101.21875 188.71875 C100.59875122 189.33045044 99.97875244 189.94215088 99.33996582 190.5723877 C95.5862833 194.30531905 92.06721403 198.15945525 88.66809082 202.21911621 C86.92195492 204.08332233 85.08003161 205.46446126 83 206.9375 C80.63128921 209.37008613 80.04049456 210.65156883 79.64453125 214.05859375 C79.85109654 218.75194922 80.39428861 223.34359366 81 228 C81.28309401 230.3474346 81.56419107 232.69511053 81.84375 235.04296875 C82.33380546 239.12277594 82.82837958 243.20172607 83.34057617 247.27880859 C84.99188295 260.48294775 86.32435732 273.71261802 87.60473633 286.95727539 C88.60988188 297.32170605 89.74099474 307.66325244 91 318 C87.73483457 316.78996189 85.00979446 315.48074062 82.20703125 313.41796875 C81.50352539 312.90468018 80.80001953 312.3913916 80.07519531 311.86254883 C79.32850586 311.30978271 78.58181641 310.7570166 77.8125 310.1875 C76.19931501 309.00768087 74.58603093 307.82799722 72.97265625 306.6484375 C72.14910645 306.04354492 71.32555664 305.43865234 70.47705078 304.81542969 C66.58247724 301.96109805 62.66622064 299.13701776 58.75 296.3125 C57.62235229 295.49785278 57.62235229 295.49785278 56.47192383 294.66674805 C51.99107461 291.43066065 47.50077484 288.20830494 43 285 C35.43392419 279.60664457 27.90511025 274.16203763 20.37597656 268.71728516 C17.91569473 266.93906666 15.45411745 265.16265463 12.9921875 263.38671875 C12.17717773 262.79866455 11.36216797 262.21061035 10.52246094 261.60473633 C8.9607963 260.47801597 7.39895615 259.35153881 5.83691406 258.2253418 C5.13018555 257.71527588 4.42345703 257.20520996 3.6953125 256.6796875 C3.07672363 256.23351074 2.45813477 255.78733398 1.82080078 255.32763672 C-0 254 -0 254 -1.82546997 252.4393158 C-4.34862384 250.76924678 -5.61964493 250.62761614 -8.61328125 250.64331055 C-9.97235596 250.64352959 -9.97235596 250.64352959 -11.35888672 250.64375305 C-12.3335791 250.66205673 -13.30827148 250.68036041 -14.3125 250.69921875 C-15.33359863 250.70966721 -16.35469727 250.72011566 -17.40673828 250.73088074 C-27.31718993 250.89226383 -37.15825686 251.63017642 -47.02450562 252.53869629 C-50.09605751 252.82133917 -53.16850163 253.09144664 -56.24145508 253.35839844 C-60.45112539 253.72428743 -64.66047492 254.09355294 -68.86962891 254.46533203 C-77.30920701 255.20615959 -85.7527117 255.89436356 -94.19897461 256.55429077 C-96.60893385 256.74382119 -99.01831353 256.93974975 -101.42773438 257.13598633 C-109.96267232 257.81264072 -118.43314208 258.16843631 -127 258 C-121.52823567 251.4338828 -115.75334173 245.30887301 -109.25 239.75 C-105.65483311 236.66438432 -102.32661595 233.3680304 -99 230 C-95.12743486 226.07934339 -91.19207745 222.345958 -86.9921875 218.7734375 C-84.56062019 216.60886582 -82.28788919 214.31570547 -80 212 C-77.14476317 209.11010172 -74.28499804 206.31548255 -71.1875 203.6875 C-66.81929735 199.95724987 -62.83403731 195.87004394 -58.80664062 191.78051758 C-55.14147089 188.07820085 -51.37363507 184.61489307 -47.29296875 181.3671875 C-45.65644449 179.9503482 -45.65644449 179.9503482 -46 177 C-46.4626123 177.38220703 -46.92522461 177.76441406 -47.40185547 178.15820312 C-63.00808059 191.04642481 -63.00808059 191.04642481 -70.36328125 196.890625 C-73.84407105 199.67525684 -77.29518783 202.49574972 -80.75 205.3125 C-85.77351052 209.40577429 -90.82678049 213.4537104 -95.9375 217.4375 C-102.78805438 222.78192525 -109.49321411 228.29768333 -116.1875 233.8359375 C-116.83332031 234.36928711 -117.47914063 234.90263672 -118.14453125 235.45214844 C-119.35928846 236.46551169 -120.56545335 237.48928641 -121.76171875 238.52441406 C-125.79662245 242 -125.79662245 242 -128 242 C-128.27806981 226.3313708 -127.46220988 210.71787546 -126.66760254 195.07513428 C-126.49414809 191.65046662 -126.32418241 188.22562749 -126.15429688 184.80078125 C-126.12073625 184.12792871 -126.08717562 183.45507616 -126.052598 182.76183414 C-125.88570317 179.40384307 -125.723165 176.04573432 -125.56932068 172.68711853 C-125.27248576 166.26978192 -124.93157386 159.86341566 -124.47485352 153.45532227 C-124.40125107 152.27006958 -124.32764862 151.08481689 -124.2518158 149.86364746 C-124.11438355 147.65298238 -123.95377718 145.44358089 -123.76515198 143.23669434 C-123.48088574 138.21545329 -123.46965863 134.95361134 -126.67602539 130.91796875 C-129.25179981 128.21688441 -132.15834969 126.14131237 -135.29150391 124.13232422 C-137.75964101 122.49653973 -139.84665857 120.52520872 -142 118.5 C-142.79664063 117.78585938 -143.59328125 117.07171875 -144.4140625 116.3359375 C-148.54333945 112.60586557 -152.62210206 108.82145343 -156.70703125 105.04296875 C-161.2926721 100.80209267 -165.90044917 96.58545151 -170.50732422 92.36767578 C-172.02814876 90.97420848 -173.54747324 89.57912249 -175.06640625 88.18359375 C-183.48360574 80.45230961 -191.90848503 72.73425784 -200.6015625 65.3125 C-201.06304687 64.879375 -201.52453125 64.44625 -202 64 C-202 63.67 -202 63.34 -202 63 C-175.5159307 62.61685633 -149.0713326 63.39463937 -122.60345459 64.21713066 C-120.32685805 64.28781011 -118.05024125 64.35780547 -115.77362061 64.42770386 C-112.96187762 64.51404647 -110.1502595 64.60347708 -107.33868408 64.69509888 C-103.55931744 64.81280986 -99.78017684 64.91235239 -96 65 C-94.70179321 65.03351563 -93.40358643 65.06703125 -92.06604004 65.1015625 C-90.8159314 65.12089844 -89.56582275 65.14023438 -88.27783203 65.16015625 C-87.16231964 65.18086182 -86.04680725 65.20156738 -84.89749146 65.22290039 C-80.47568215 64.88273614 -78.20567667 63.1439004 -75.25 60 C-74.16906425 58.97540552 -73.08702445 57.95197459 -72.00390625 56.9296875 C-71.49230957 56.4253418 -70.98071289 55.92099609 -70.45361328 55.40136719 C-68.47528644 53.49414581 -66.35531892 51.8114835 -64.1875 50.125 C-59.84421909 46.6827563 -55.54461138 43.19004949 -51.25 39.6875 C-46.20363337 35.5764335 -41.1297665 31.50650295 -36 27.5 C-30.89408488 23.51084373 -25.83919107 19.46355715 -20.8125 15.375 C-19.80678955 14.55769409 -19.80678955 14.55769409 -18.78076172 13.72387695 C-15.71082185 11.22441351 -12.65057958 8.71483629 -9.61328125 6.17578125 C-8.62714844 5.35464844 -7.64101563 4.53351563 -6.625 3.6875 C-5.77164063 2.96949219 -4.91828125 2.25148438 -4.0390625 1.51171875 C-2 0 -2 0 0 0 Z " fill="#E1E1E1" transform="translate(268,80)"/>
<path d="M0 0 C6.60517516 4.96142152 12.74480026 11.89223853 14.015625 20.30126953 C14.14821767 22.43028585 14.17865014 24.52728799 14.1484375 26.66015625 C14.13707764 27.78442017 14.13707764 27.78442017 14.12548828 28.93139648 C13.95124341 34.78767768 12.97064572 39.32999607 9.7109375 44.28515625 C9.26363281 44.99027344 8.81632813 45.69539063 8.35546875 46.421875 C5.09037856 51.15756882 1.60441493 54.27378553 -3.2890625 57.28515625 C-3.9490625 57.28515625 -4.6090625 57.28515625 -5.2890625 57.28515625 C-2.72670455 64.19987523 0.34141783 70.50331141 4.0859375 76.84765625 C5.16122492 78.69990085 6.23539731 80.5527931 7.30859375 82.40625 C7.86691895 83.36772949 8.42524414 84.32920898 9.00048828 85.31982422 C11.8871624 90.32432663 14.70555708 95.36669129 17.5234375 100.41015625 C18.09803711 101.4374585 18.67263672 102.46476074 19.26464844 103.52319336 C24.4406602 112.78534237 29.59309114 122.06062597 34.73754883 131.34033203 C37.69619614 136.67451501 40.6666628 141.99932605 43.7109375 147.28515625 C44.3709375 145.63515625 45.0309375 143.98515625 45.7109375 142.28515625 C46.0409375 142.28515625 46.3709375 142.28515625 46.7109375 142.28515625 C47.0409375 145.91515625 47.3709375 149.54515625 47.7109375 153.28515625 C44.07062495 151.82903123 41.90799821 150.9037207 38.91796875 148.703125 C38.21446289 148.18983643 37.51095703 147.67654785 36.78613281 147.14770508 C36.03944336 146.59493896 35.29275391 146.04217285 34.5234375 145.47265625 C32.91025251 144.29283712 31.29696843 143.11315347 29.68359375 141.93359375 C28.44826904 141.02625488 28.44826904 141.02625488 27.18798828 140.10058594 C23.29341474 137.2462543 19.37715814 134.42217401 15.4609375 131.59765625 C14.33328979 130.78300903 14.33328979 130.78300903 13.18286133 129.9519043 C8.70201211 126.7158169 4.21171234 123.49346119 -0.2890625 120.28515625 C-7.85513831 114.89180082 -15.38395225 109.44719388 -22.91308594 104.00244141 C-25.37336777 102.22422291 -27.83494505 100.44781088 -30.296875 98.671875 C-31.11188477 98.0838208 -31.92689453 97.4957666 -32.76660156 96.88989258 C-34.3282662 95.76317222 -35.89010635 94.63669506 -37.45214844 93.51049805 C-38.15887695 93.00043213 -38.86560547 92.49036621 -39.59375 91.96484375 C-40.21233887 91.51866699 -40.83092773 91.07249023 -41.46826172 90.61279297 C-43.2890625 89.28515625 -43.2890625 89.28515625 -45.11453247 87.72447205 C-47.63768634 86.05440303 -48.90870743 85.91277239 -51.90234375 85.9284668 C-53.26141846 85.92868584 -53.26141846 85.92868584 -54.64794922 85.9289093 C-55.6226416 85.94721298 -56.59733398 85.96551666 -57.6015625 85.984375 C-58.62266113 85.99482346 -59.64375977 86.00527191 -60.69580078 86.01603699 C-70.60642871 86.17742295 -80.44769016 86.91533527 -90.31411743 87.82385254 C-93.38402838 88.10639658 -96.4548239 88.37654477 -99.52612305 88.64355469 C-103.73431995 89.00953777 -107.9421996 89.37886997 -112.14990234 89.75048828 C-120.6288098 90.49421107 -129.11208985 91.17957599 -137.59790039 91.83944702 C-140.02977839 92.02954494 -142.46116475 92.225206 -144.89257812 92.42114258 C-152.69994109 93.03608928 -160.4515232 93.47628985 -168.2890625 93.28515625 C-165.5104659 90.34651167 -162.5231694 88.7155116 -158.9140625 86.97265625 C-158.23053711 86.63709717 -157.54701172 86.30153809 -156.84277344 85.95581055 C-154.3282556 84.72520444 -151.80860743 83.50543602 -149.2890625 82.28515625 C-147.11456419 81.22529969 -144.94008641 80.16540102 -142.765625 79.10546875 C-129.17199702 72.49801361 -115.51817931 66.0384918 -101.79418945 59.70629883 C-94.84833929 56.49519458 -87.96993605 53.19251685 -81.15234375 49.71875 C-76.59391151 47.43642444 -71.9496627 45.34913634 -67.2890625 43.28515625 C-67.505625 42.41890625 -67.505625 42.41890625 -67.7265625 41.53515625 C-67.9121875 40.79265625 -68.0978125 40.05015625 -68.2890625 39.28515625 C-68.46695313 38.68960938 -68.64484375 38.0940625 -68.828125 37.48046875 C-70.59700273 29.0558138 -70.3276984 20.03413051 -65.89453125 12.55859375 C-59.12696576 2.97532582 -50.94853045 -4.18605633 -39.3828125 -7.2421875 C-25.09542575 -9.4249827 -12.20401551 -8.14431239 0 0 Z " fill="#A9A9A9" transform="translate(311.2890625,244.71484375)"/>
<path d="M0 0 C9.69385248 2.50579447 19.21156619 5.53090752 28.75 8.5625 C30.43592312 9.09661369 32.12187734 9.63062925 33.80786133 10.16455078 C43.79651141 13.33108756 53.77566464 16.52663577 63.74673462 19.74807739 C65.66909024 20.36905312 67.59171691 20.98918321 69.5144043 21.60913086 C74.99095132 23.37628621 80.46463445 25.15072102 85.9296875 26.953125 C87.64058487 27.51053984 89.35151903 28.06784179 91.0625 28.625 C91.80008545 28.8729834 92.5376709 29.1209668 93.29760742 29.37646484 C97.30049352 30.67024034 100.79911858 31.58631007 105 31 C106.92942044 29.46798347 106.92942044 29.46798347 108.375 27.3125 C115.53993446 18.48093949 125.46678033 14.87201257 136.64453125 13.578125 C149.73046329 13.08483332 161.35888445 16.67665778 171.68359375 24.81640625 C176.63260889 29.48166673 179.93371313 34.2350022 181 41 C175.28847287 38.14423643 171.03754863 34.43801764 166.35546875 30.1171875 C163.67170928 27.70491946 161.10237863 25.83322374 158 24 C157.1646875 23.47019531 156.329375 22.94039062 155.46875 22.39453125 C150.74801891 20.49666976 146.76902809 20.74528926 141.75 21.0625 C140.3431897 21.14213989 140.3431897 21.14213989 138.90795898 21.22338867 C132.36092369 21.68708235 126.73258727 22.63704171 121 26 C119.88625 26.61875 118.7725 27.2375 117.625 27.875 C111.39707932 32.91665008 108.45709746 40.01672216 107.5625 47.8125 C107.89911092 55.24721074 110.91520447 62.99790989 116.0234375 68.43359375 C126.00696555 76.34544108 136.25500609 77.86160007 148.5625 76.7734375 C150.37910675 76.54636166 152.19054446 76.27837778 154 76 C155.31859467 78.63718935 155.31894262 80.8758155 155.53515625 83.8203125 C155.62216797 84.9959375 155.70917969 86.1715625 155.79882812 87.3828125 C155.88583984 88.61773437 155.97285156 89.85265625 156.0625 91.125 C156.19881836 92.94257813 156.19881836 92.94257813 156.33789062 94.796875 C156.508408 97.15078401 156.66511558 99.50574238 156.80664062 101.86157227 C156.92185939 103.7316951 157.06238652 105.60094647 157.25585938 107.46459961 C157.54598619 111.35789951 157.19520149 112.76750918 154.6484375 115.80078125 C153.57685489 116.66291817 152.48399846 117.49905562 151.375 118.3125 C150.7881543 118.77487061 150.20130859 119.23724121 149.59667969 119.71362305 C147.74718252 121.16458942 145.87475912 122.58190038 144 124 C142.3091183 125.32036977 140.62553183 126.64966039 138.94189453 127.97924805 C137.80227549 128.87729416 136.65995983 129.77192757 135.51513672 130.66333008 C130.77271974 134.35830618 126.12910917 138.16440786 121.5 142 C116.38529981 146.23650502 111.24105782 150.42076049 106 154.5 C99.16708851 159.82002356 92.48457249 165.31619814 85.8125 170.8359375 C85.16667969 171.36928711 84.52085937 171.90263672 83.85546875 172.45214844 C82.64071154 173.46551169 81.43454665 174.48928641 80.23828125 175.52441406 C76.20337755 179 76.20337755 179 74 179 C73.72193019 163.3313708 74.53779012 147.71787546 75.33239746 132.07513428 C75.50585191 128.65046662 75.67581759 125.22562749 75.84570312 121.80078125 C75.87926375 121.12792871 75.91282438 120.45507616 75.947402 119.76183414 C76.11429683 116.40384307 76.276835 113.04573432 76.43067932 109.68711853 C76.72751424 103.26978192 77.06842614 96.86341566 77.52514648 90.45532227 C77.59874893 89.27006958 77.67235138 88.08481689 77.7481842 86.86364746 C77.88561645 84.65298238 78.04622282 82.44358089 78.23484802 80.23669434 C78.51911426 75.21545329 78.53034137 71.95361134 75.32397461 67.91796875 C72.74820019 65.21688441 69.84165031 63.14131237 66.70849609 61.13232422 C64.24035899 59.49653973 62.15334143 57.52520872 60 55.5 C59.20335937 54.78585938 58.40671875 54.07171875 57.5859375 53.3359375 C53.45666055 49.60586557 49.37789794 45.82145343 45.29296875 42.04296875 C40.7073279 37.80209267 36.09955083 33.58545151 31.49267578 29.36767578 C29.97185124 27.97420848 28.45252676 26.57912249 26.93359375 25.18359375 C18.51639426 17.45230961 10.09151497 9.73425784 1.3984375 2.3125 C0.93695313 1.879375 0.47546875 1.44625 0 1 C0 0.67 0 0.34 0 0 Z " fill="#CFCFCF" transform="translate(66,143)"/>
<path d="M0 0 C-1.48108873 3.4534417 -3.42821699 5.64921326 -6.10546875 8.265625 C-6.92466797 9.07386719 -7.74386719 9.88210937 -8.58789062 10.71484375 C-9.44576172 11.55144531 -10.30363281 12.38804687 -11.1875 13.25 C-12.87095998 14.89852269 -14.55198456 16.54953636 -16.23046875 18.203125 C-16.97707764 18.93176758 -17.72368652 19.66041016 -18.49291992 20.41113281 C-20.52441155 22.50889669 -22.43972653 24.63678957 -24.34692383 26.84472656 C-27.808568 30.83293454 -31.46080547 34.57360347 -35.21875 38.28125 C-35.88032104 38.93903442 -36.54189209 39.59681885 -37.22351074 40.27453613 C-40.01578144 43.05066558 -42.81405416 45.82071537 -45.61181641 48.59130859 C-47.67040898 50.6316708 -49.72587903 52.67514331 -51.78125 54.71875 C-52.40124878 55.33045044 -53.02124756 55.94215088 -53.66003418 56.5723877 C-57.4137167 60.30531905 -60.93278597 64.15945525 -64.33190918 68.21911621 C-66.07804508 70.08332233 -67.91996839 71.46446126 -70 72.9375 C-72.36871079 75.37008613 -72.95950544 76.65156883 -73.35546875 80.05859375 C-73.14890346 84.75194922 -72.60571139 89.34359366 -72 94 C-71.71690599 96.3474346 -71.43580893 98.69511053 -71.15625 101.04296875 C-70.66653567 105.1174835 -70.17282926 109.1912818 -69.66381836 113.26342773 C-68.31507285 124.09151267 -67.11710762 134.93100835 -66.01846313 145.787323 C-65.84125752 147.53663668 -65.66223786 149.28576766 -65.48129272 151.03469849 C-62.96307308 175.44460962 -62.96307308 175.44460962 -66 180 C-66.32572998 179.39341553 -66.65145996 178.78683105 -66.98706055 178.16186523 C-73.52700392 165.99800405 -80.14589833 153.88764582 -86.97021484 141.88085938 C-91.95229274 133.10953232 -96.85141703 124.29328303 -101.73217773 115.46533203 C-104.35636025 110.72569828 -106.98207224 105.99156392 -109.7265625 101.3203125 C-110.10965576 100.66683838 -110.49274902 100.01336426 -110.88745117 99.34008789 C-111.84258542 97.72317729 -112.80933567 96.11314262 -113.77734375 94.50390625 C-115 92 -115 92 -115 88 C-113.2421875 86.578125 -113.2421875 86.578125 -110.875 85.25 C-104.55022041 81.29204044 -99.85373682 75.79011733 -97.47265625 68.58984375 C-96.80694146 64.94216687 -96.6359128 61.32266534 -96.5625 57.625 C-96.54010254 56.92963135 -96.51770508 56.2342627 -96.49462891 55.51782227 C-96.51389944 51.14797549 -97.34569582 47.7676114 -99.03100586 43.72412109 C-99.39777939 42.83582611 -99.76455292 41.94753113 -100.1424408 41.03231812 C-100.42543533 40.36165314 -100.70842987 39.69098816 -101 39 C-86.13827308 32.98259067 -71.18626234 27.22859754 -56.1875 21.5625 C-40.08459433 15.47567316 -24.0165546 9.31092773 -8 3 C-9.98 2.67 -11.96 2.34 -14 2 C-14 1.67 -14 1.34 -14 1 C-12.41693353 0.83081732 -10.83353281 0.66476064 -9.25 0.5 C-8.36828125 0.4071875 -7.4865625 0.314375 -6.578125 0.21875 C-4 0 -4 0 0 0 Z " fill="#CFCFCF" transform="translate(421,214)"/>
<path d="M0 0 C6.6110281 4.47295541 12.59362772 9.94716692 14.47265625 17.97265625 C14.64667969 19.07673828 14.64667969 19.07673828 14.82421875 20.203125 C9.11269162 17.34736143 4.86176738 13.64114264 0.1796875 9.3203125 C-2.50407197 6.90804446 -5.07340262 5.03634874 -8.17578125 3.203125 C-9.42875 2.40841797 -9.42875 2.40841797 -10.70703125 1.59765625 C-15.42776234 -0.30020524 -19.40675316 -0.05158574 -24.42578125 0.265625 C-25.83259155 0.34526489 -25.83259155 0.34526489 -27.26782227 0.42651367 C-33.81485756 0.89020735 -39.44319398 1.84016671 -45.17578125 5.203125 C-46.28953125 5.821875 -47.40328125 6.440625 -48.55078125 7.078125 C-54.77870193 12.11977508 -57.71868379 19.21984716 -58.61328125 27.015625 C-58.27667033 34.45033574 -55.26057678 42.20103489 -50.15234375 47.63671875 C-40.1688157 55.54856608 -29.92077516 57.06472507 -17.61328125 55.9765625 C-15.7966745 55.74948666 -13.98523679 55.48150278 -12.17578125 55.203125 C-10.85718658 57.84031435 -10.85683863 60.0789405 -10.640625 63.0234375 C-10.55361328 64.1990625 -10.46660156 65.3746875 -10.37695312 66.5859375 C-10.28994141 67.82085937 -10.20292969 69.05578125 -10.11328125 70.328125 C-9.97696289 72.14570313 -9.97696289 72.14570313 -9.83789062 74 C-9.66737325 76.35390901 -9.51066567 78.70886738 -9.36914062 81.06469727 C-9.25392186 82.9348201 -9.11339473 84.80407147 -8.91992188 86.66772461 C-8.62979506 90.56102451 -8.98057976 91.97063418 -11.52734375 95.00390625 C-12.59892636 95.86604317 -13.69178279 96.70218062 -14.80078125 97.515625 C-15.38762695 97.97799561 -15.97447266 98.44036621 -16.57910156 98.91674805 C-18.42859873 100.36771442 -20.30102213 101.78502538 -22.17578125 103.203125 C-23.86666295 104.52349477 -25.55024942 105.85278539 -27.23388672 107.18237305 C-28.37350576 108.08041916 -29.51582142 108.97505257 -30.66064453 109.86645508 C-35.40306151 113.56143118 -40.04667208 117.36753286 -44.67578125 121.203125 C-50.33643575 125.89184385 -56.04940864 130.4945923 -61.85180664 135.00634766 C-67.40315415 139.34077612 -72.82427764 143.82969632 -78.22851562 148.34570312 C-82.42306282 151.83244562 -86.69881072 155.08617289 -91.17578125 158.203125 C-90.53631503 153.13814653 -88.31759203 148.9261821 -86.11328125 144.390625 C-85.70553467 143.54169678 -85.29778809 142.69276855 -84.87768555 141.81811523 C-81.46641337 134.74040481 -77.96821197 127.70762697 -74.43066406 120.69238281 C-67.16735194 106.28445862 -59.91865381 91.86975922 -52.92578125 77.328125 C-52.47227295 76.39025146 -52.01876465 75.45237793 -51.55151367 74.48608398 C-49.46577635 70.1211951 -47.55738155 65.85451269 -46.17578125 61.203125 C-46.74425781 60.8628125 -47.31273437 60.5225 -47.8984375 60.171875 C-57.00470879 54.45575145 -62.31170927 48.21647283 -66.17578125 38.203125 C-66.50578125 37.543125 -66.83578125 36.883125 -67.17578125 36.203125 C-68.00961307 26.0331107 -67.38512885 17.83488476 -61.1875 9.54296875 C-45.47182927 -8.88698017 -20.91919359 -11.8361981 0 0 Z " fill="#ABABAB" transform="translate(232.17578125,163.796875)"/>
<path d="M0 0 C6.71385929 -0.14595346 9.5813653 2.99175162 14.29296875 7.484375 C18.87423742 11.74171558 23.94212016 15.33558951 29 19 C29.66032227 19.47953125 30.32064453 19.9590625 31.00097656 20.453125 C35.54407604 23.74962962 40.09711602 27.03218757 44.65332031 30.31054688 C47.69238529 32.49847131 50.72896577 34.68977386 53.76098633 36.88745117 C55.25672543 37.96468995 56.7592528 39.03256383 58.26831055 40.09106445 C62.11530309 42.80695418 65.71476424 45.58882369 69.18359375 48.77734375 C76.02067073 54.84291559 81.80932888 58.8065674 91.19506836 58.42382812 C95.1788156 58.04195745 99.13476503 57.52915433 103.09358215 56.94308472 C113.27456521 55.46025806 123.54130545 54.69091397 133.78451538 53.76580811 C138.44917532 53.33927915 143.11155782 52.89054875 147.77398682 52.44038391 C174.95561757 49.81992603 174.95561757 49.81992603 186.8125 49.9375 C187.70775391 49.94201172 188.60300781 49.94652344 189.52539062 49.95117188 C191.68362426 49.96271323 193.84182239 49.9806345 196 50 C193.12512192 52.87487808 189.57015971 53.8640481 185.83203125 55.28125 C184.56138069 55.7704039 184.56138069 55.7704039 183.26506042 56.2694397 C180.44959343 57.35173366 177.63120729 58.4261758 174.8125 59.5 C172.85338325 60.24949132 170.89440082 60.99933382 168.93554688 61.74951172 C165.85338717 62.929673 162.77100897 64.10923922 159.68777466 65.28659058 C153.13482109 67.79077041 146.59302361 70.32187432 140.05924988 72.87567139 C135.75149063 74.55877263 131.44044145 76.23334536 127.1289978 77.90698242 C125.0449032 78.718253 122.96223215 79.53319024 120.88101196 80.35180664 C117.96619271 81.49734915 115.04636194 82.62908011 112.125 83.7578125 C111.25715378 84.10276764 110.38930756 84.44772278 109.49516296 84.8031311 C108.69496231 85.10931366 107.89476166 85.41549622 107.0703125 85.73095703 C106.37695801 86.00167023 105.68360352 86.27238342 104.96923828 86.55130005 C102.58967778 87.09349379 101.27003375 86.86643098 99 86 C97.33333333 84.33333333 95.66666667 82.66666667 94 81 C81.13782189 71.22122075 66.92144665 70.59992314 51.41796875 72.51953125 C50.29003906 72.67808594 49.16210938 72.83664063 48 73 C43.33321338 66.73317225 38.90273345 60.39185644 34.75 53.7734375 C29.23347173 45.03072528 23.32689707 36.53706514 17.5 28 C15.57078872 25.17096559 13.64188413 22.3417228 11.71337891 19.51220703 C10.66736922 17.97851657 9.62040921 16.44547301 8.57177734 14.91357422 C7.43920654 13.25793745 6.31299026 11.5979582 5.1875 9.9375 C4.60355469 9.08027344 4.01960937 8.22304687 3.41796875 7.33984375 C1.97575075 4.9599854 0.95370036 2.60988244 0 0 Z " fill="#F3F3F3" transform="translate(219,166)"/>
<path d="M0 0 C0.66 0 1.32 0 2 0 C1.96669083 1.18635544 1.93338165 2.37271088 1.89906311 3.59501648 C1.59394351 14.81859811 1.36964873 26.04133065 1.22281742 37.2681303 C1.14478363 43.03932743 1.0391115 48.8071572 0.8684082 54.57641602 C0.70445584 60.15292271 0.61554746 65.72620918 0.57684135 71.30494118 C0.54929153 73.42431139 0.49548418 75.54352046 0.41404915 77.66150475 C-0.31485089 90.27023663 -0.31485089 90.27023663 5.20187378 101.08096313 C8.27371172 103.95070272 11.5684471 106.36753795 15.07285881 108.67968178 C18.16784014 110.80010776 20.93526623 113.27738551 23.75 115.75 C28.50518711 119.78577009 33.32060217 123.74631545 38.1796875 127.65625 C40.26278948 129.38735968 42.26545144 131.13900678 44.2578125 132.96875 C50.85855925 139.30839161 50.85855925 139.30839161 59.3125 142.1875 C60.529375 142.125625 61.74625 142.06375 63 142 C63 142.33 63 142.66 63 143 C39.22066654 147.43212428 39.22066654 147.43212428 30.57421875 142.4375 C26.50384148 139.56898301 22.81153179 136.29210033 19.15576172 132.91748047 C15.80190803 129.93433586 12.14182597 127.46059412 8.4375 124.9375 C7.05348678 123.9587269 5.67067683 122.97825016 4.2890625 121.99609375 C1.27589277 119.87174605 -1.7757464 117.81758813 -4.8515625 115.78515625 C-19.4860011 105.94144887 -19.4860011 105.94144887 -22.9296875 96.65625 C-25.91814934 89.23962938 -32.25565419 85.67131728 -39 82 C-41.98980665 80.77572572 -44.8805631 79.86935127 -48 79 C-47.40469482 78.77143311 -46.80938965 78.54286621 -46.19604492 78.30737305 C-43.3833458 76.6328868 -42.46921873 74.92404931 -40.86328125 72.08203125 C-40.2909375 71.08300781 -39.71859375 70.08398438 -39.12890625 69.0546875 C-38.52949219 67.98476562 -37.93007812 66.91484375 -37.3125 65.8125 C-36.04887736 63.59986035 -34.78455653 61.38761927 -33.51953125 59.17578125 C-32.91061035 58.10408691 -32.30168945 57.03239258 -31.67431641 55.92822266 C-29.66753797 52.41855503 -27.59742587 48.95621024 -25.5 45.5 C-20.92384649 37.93663516 -16.48754955 30.29189945 -12.046875 22.6484375 C-11.48097656 21.67519531 -10.91507813 20.70195313 -10.33203125 19.69921875 C-9.78111816 18.74966309 -9.23020508 17.80010742 -8.66259766 16.82177734 C-6.52809096 13.19907126 -4.31118771 9.62906239 -2.07299805 6.06958008 C-0.76986129 3.94464552 -0.76986129 3.94464552 -1 1 C-0.67 0.67 -0.34 0.34 0 0 Z " fill="#CCCCCC" transform="translate(266,80)"/>
<path d="M0 0 C1.0725 0.61875 2.145 1.2375 3.25 1.875 C8.85374214 6.20516438 12.48300827 11.09826665 14 18 C15.06606883 26.48169045 13.85392446 32.92748885 9 40 C3.44604254 47.0233297 -3.48723246 50.58380131 -12 53 C-24.1064445 54.26667025 -33.214091 52.94560324 -43.1484375 45.359375 C-48.59841009 40.43830271 -51.51042628 34.94430145 -52.4140625 27.6640625 C-52.78853449 18.57818956 -51.31056911 11.76146546 -45.1328125 4.9375 C-33.98392964 -5.47390812 -13.13852128 -8.50484636 0 0 Z " fill="#FAFBFB" transform="translate(303,247)"/>
<path d="M0 0 C6.60517516 4.96142152 12.74480026 11.89223853 14.015625 20.30126953 C14.14821767 22.43028585 14.17865014 24.52728799 14.1484375 26.66015625 C14.14086426 27.40966553 14.13329102 28.1591748 14.12548828 28.93139648 C13.95104073 34.79448964 12.96086015 39.3188682 9.7109375 44.28515625 C9.2984375 44.96707031 8.8859375 45.64898437 8.4609375 46.3515625 C2.74367143 54.91121937 -5.71573348 59.93294969 -15.5234375 62.62890625 C-28.40701085 64.87417629 -41.6342217 64.54697023 -52.9765625 57.59765625 C-60.35218366 52.3330786 -67.56399553 44.45356775 -69.2890625 35.28515625 C-70.29911188 23.02027096 -68.46126487 15.13260215 -60.6015625 5.53515625 C-44.79594103 -11.24904967 -18.7263818 -12.49699357 0 0 Z M-53.2890625 7.28515625 C-59.32831354 14.24643035 -60.81770822 20.52669944 -60.6640625 29.70703125 C-59.86103044 37.36929551 -56.01845135 43.62211759 -50.3359375 48.74609375 C-41.06297694 55.71851066 -31.49939829 56.59780286 -20.2890625 55.28515625 C-10.57164573 53.47282821 -3.31431599 47.82441274 2.4453125 39.8984375 C6.56960378 32.70409794 6.91966361 25.54799478 5.08203125 17.546875 C2.3291733 9.41174769 -3.11153939 4.77241494 -10.6015625 0.91015625 C-24.01889123 -5.34944945 -42.5415339 -2.98364056 -53.2890625 7.28515625 Z " fill="#090909" transform="translate(311.2890625,244.71484375)"/>
<path d="M0 0 C1.79849562 14.64988176 2.55562255 29.25064268 3 44 C-7.63102513 47.30566702 -16.95940115 46.98940528 -27 42 C-32.35379487 38.82974946 -37.45935352 34.82039013 -40 29 C-41.43673587 23.00675895 -40.17142407 18.57516149 -37.125 13.3125 C-32.54188607 6.76254365 -26.93537018 2.67617619 -19.625 -0.4375 C-13.19655091 -1.43501796 -6.30051362 -1.87962817 0 0 Z " fill="#FAFAFA" transform="translate(216,175)"/>
<path d="M0 0 C6.6110281 4.47295541 12.59362772 9.94716692 14.47265625 17.97265625 C14.64667969 19.07673828 14.64667969 19.07673828 14.82421875 20.203125 C9.11269162 17.34736143 4.86176738 13.64114264 0.1796875 9.3203125 C-2.50407197 6.90804446 -5.07340262 5.03634874 -8.17578125 3.203125 C-9.42875 2.40841797 -9.42875 2.40841797 -10.70703125 1.59765625 C-15.42776234 -0.30020524 -19.40675316 -0.05158574 -24.42578125 0.265625 C-25.83259155 0.34526489 -25.83259155 0.34526489 -27.26782227 0.42651367 C-33.81485756 0.89020735 -39.44319398 1.84016671 -45.17578125 5.203125 C-46.28953125 5.821875 -47.40328125 6.440625 -48.55078125 7.078125 C-54.77870193 12.11977508 -57.71868379 19.21984716 -58.61328125 27.015625 C-58.27667033 34.45033574 -55.26057678 42.20103489 -50.15234375 47.63671875 C-40.1688157 55.54856608 -29.92077516 57.06472507 -17.61328125 55.9765625 C-15.7966745 55.74948666 -13.98523679 55.48150278 -12.17578125 55.203125 C-12.17578125 57.843125 -12.17578125 60.483125 -12.17578125 63.203125 C-22.3407322 67.07548727 -34.17516203 66.18527202 -44.17578125 62.203125 C-55.0717832 57.13672767 -61.99192929 49.38370114 -66.17578125 38.203125 C-66.50578125 37.543125 -66.83578125 36.883125 -67.17578125 36.203125 C-68.00961307 26.0331107 -67.38512885 17.83488476 -61.1875 9.54296875 C-45.47182927 -8.88698017 -20.91919359 -11.8361981 0 0 Z " fill="#0C0B0C" transform="translate(232.17578125,163.796875)"/>
<path d="M0 0 C1.87610864 1.51260278 3.62335536 3.10578817 5.36865234 4.76757812 C6.68822665 5.96760911 8.00855253 7.16681411 9.32958984 8.36523438 C9.98540039 8.96996582 10.64121094 9.57469727 11.31689453 10.19775391 C14.14514653 12.77729748 17.06133275 15.24527129 19.99365234 17.70507812 C20.52684082 18.15536377 21.0600293 18.60564941 21.609375 19.06958008 C25.83849222 22.63590578 30.11338732 26.14326137 34.42333984 29.61132812 C36.50644182 31.3424378 38.50910378 33.09408491 40.50146484 34.92382812 C47.1022116 41.26346974 47.1022116 41.26346974 55.55615234 44.14257812 C57.38146484 44.04976562 57.38146484 44.04976562 59.24365234 43.95507812 C59.24365234 44.28507812 59.24365234 44.61507812 59.24365234 44.95507812 C35.46431888 49.38720241 35.46431888 49.38720241 26.81787109 44.39257812 C22.74749382 41.52406113 19.05518413 38.24717845 15.39941406 34.87255859 C12.0457153 31.88955179 8.38608405 29.41454814 4.68115234 26.89257812 C3.30338183 25.92330792 1.92708458 24.95194023 0.55224609 23.97851562 C-2.54599618 21.79669549 -5.66229408 19.64267362 -8.78369141 17.49414062 C-10.44156058 16.33574014 -12.09912017 15.17689643 -13.75634766 14.01757812 C-14.9330603 13.21984985 -14.9330603 13.21984985 -16.13354492 12.40600586 C-21.53254634 8.59938113 -21.53254634 8.59938113 -22.75634766 5.07617188 C-22.75634766 4.37621094 -22.75634766 3.67625 -22.75634766 2.95507812 C-16.6815752 0.2116325 -6.16554882 -3.66813302 0 0 Z " fill="#DDDDDD" transform="translate(269.75634765625,178.044921875)"/>
<path d="M0 0 C1.0725 0.61875 2.145 1.2375 3.25 1.875 C8.82405088 6.18222113 12.53646994 11.10540136 14 18 C14.86976217 28.69535674 14.86976217 28.69535674 12 33 C11.979375 31.865625 11.95875 30.73125 11.9375 29.5625 C11.00153517 22.21777597 5.53139055 16.98382503 -0.0625 12.5625 C-7.78227597 6.83387132 -16.86724762 7.30921225 -26 8 C-36.21331783 10.03992541 -43.99866135 17.83817944 -50 26 C-50.78946609 28.68507329 -50.78946609 28.68507329 -51 31 C-51.33 31 -51.66 31 -52 31 C-52.59113623 21.88336564 -52.57745044 14.5443774 -47 7 C-36.0379139 -5.10874783 -14.10374431 -9.12965591 0 0 Z " fill="#CACACA" transform="translate(303,247)"/>
<path d="M0 0 C0.66 0.33 1.32 0.66 2 1 C1.3503125 1.62648438 0.700625 2.25296875 0.03125 2.8984375 C-1.22171875 4.12433594 -1.22171875 4.12433594 -2.5 5.375 C-3.3353125 6.18710937 -4.170625 6.99921875 -5.03125 7.8359375 C-7.22431286 9.7589659 -7.22431286 9.7589659 -7 12 C-9.375 13.6875 -9.375 13.6875 -12 15 C-12.66 14.67 -13.32 14.34 -14 14 C-9.38 9.38 -4.76 4.76 0 0 Z " fill="#C7C7C6" transform="translate(155,323)"/>
<path d="M0 0 C0.66 0 1.32 0 2 0 C2 6.27 2 12.54 2 19 C1.67 19 1.34 19 1 19 C0.95101563 18.10796875 0.90203125 17.2159375 0.8515625 16.296875 C0.77679688 15.12640625 0.70203125 13.9559375 0.625 12.75 C0.55539062 11.58984375 0.48578125 10.4296875 0.4140625 9.234375 C0.03751692 6.29305666 -0.4774123 4.50050989 -2 2 C-1.34 1.34 -0.68 0.68 0 0 Z " fill="#D5D5D4" transform="translate(266,80)"/>
<path d="M0 0 C4.59306496 1.4859916 7.43569245 3.85014682 11 7 C7.41584854 7 6.58796261 6.21108216 3.8125 4.0625 C3.09707031 3.51722656 2.38164062 2.97195312 1.64453125 2.41015625 C1.10183594 1.94480469 0.55914062 1.47945312 0 1 C0 0.67 0 0.34 0 0 Z " fill="#ABABAB" transform="translate(222,166)"/>
</svg>
